<svg width="30" height="30" viewBox="0 0 30 30" fill="none" xmlns="http://www.w3.org/2000/svg">
<path d="M15.1849 1.17374L15 1.06898L14.8152 1.17374L3.56512 7.54874L3.35645 7.66699L3.37628 7.90601L4.55878 22.156L4.57474 22.3483L4.74051 22.4471L14.8081 28.4471L15 28.5615L15.192 28.4471L25.2595 22.4471L25.4253 22.3483L25.4413 22.156L26.6237 7.90601L26.6435 7.66699L26.4349 7.54874L15.1849 1.17374Z" fill="black" stroke="black" stroke-width="0.75"/>
<path d="M15 1.5L3.75 7.875L8.30921 10.125L15 6.375V1.5Z" fill="#FAD9F8"/>
<path d="M3.75 7.875L4.875 22.125L9 19.5L8.30921 10.125L3.75 7.875Z" fill="#F49DF4"/>
<path d="M26.25 7.875L15 1.5V6.375L21.6908 10.125L26.25 7.875Z" fill="#F49DF4"/>
<path d="M25.125 22.125L26.25 7.875L21.6908 10.125L21 19.5L25.125 22.125Z" fill="#D35BFA"/>
<path d="M15 28.125L25.125 22.125L21 19.5L15 22.875V28.125Z" fill="#A02CDD"/>
<path d="M4.875 22.125L15 28.125V22.875L9 19.5L4.875 22.125Z" fill="#BB55F1"/>
<path d="M15 6.375L8.30921 10.125L9 19.5L15 22.875L21 19.5L21.6908 10.125L15 6.375Z" fill="#E79CF7"/>
<g style="mix-blend-mode:soft-light">
<path fill-rule="evenodd" clip-rule="evenodd" d="M26.2494 7.88306L25.125 22.1249L15.0001 28.1249L8.50049 24.2734C12.4802 17.0732 18.7137 11.2926 26.2494 7.88306Z" fill="black"/>
</g>
<path fill-rule="evenodd" clip-rule="evenodd" d="M7.875 10.125L3.75 7.875L8.0625 9.75L14.8125 6L15 1.5L15.1875 6L21.9375 9.75L26.25 7.875L22.3125 10.125L21.7496 19.5325L25.125 22.125L21.347 20.1653L15.375 23.4375L15 28.125L14.625 23.4375L8.65299 20.1653L4.875 22.125L8.4375 19.5L7.875 10.125ZM9 19.5L15 22.875L21 19.5L21.5625 10.125L15 6.375L8.4375 10.125L9 19.5Z" fill="white"/>
</svg>
