<svg width="33" height="29" viewBox="0 0 33 29" fill="none" xmlns="http://www.w3.org/2000/svg">
<g filter="url(#filter0_i_2002_18303)">
<path d="M14.7651 27.2244C15.5015 27.8135 16.5422 27.8135 17.2786 27.2244C20.8917 24.3477 31.024 16.2673 31.024 10.3862C31.024 3.84728 27.784 1.00983 23.5622 1.00983C20.3026 1.00983 17.416 2.82619 16.5618 3.92583C16.2869 4.27929 15.7371 4.27929 15.4622 3.92583C14.608 2.81637 11.7215 1.00983 8.46183 1.00983C4.79964 1.00983 1 3.24837 1 10.3862C1 16.3949 11.1422 24.3477 14.7455 27.2244H14.7651Z" fill="#E34747"/>
</g>
<path d="M14.4335 27.6152L14.5704 27.7244H14.6003C15.5067 28.3478 16.7193 28.3115 17.59 27.6156C19.3954 26.1781 22.8564 23.4199 25.8672 20.2779C27.3725 18.707 28.778 17.0272 29.8098 15.3564C30.8368 13.6935 31.524 11.9912 31.524 10.3862C31.524 7.03955 30.6949 4.56274 29.2524 2.91641C27.8029 1.26214 25.7895 0.509827 23.5622 0.509827C21.842 0.509827 20.2317 0.988168 18.9441 1.60447C17.6681 2.2152 16.6588 2.98611 16.1672 3.61886C16.1323 3.6637 16.0772 3.69092 16.012 3.69092C15.9472 3.69092 15.8923 3.66397 15.8574 3.6195C15.3649 2.98058 14.3548 2.20975 13.0796 1.60061C11.7917 0.985455 10.1815 0.509827 8.46183 0.509827C6.53136 0.509827 4.52284 1.10122 2.99862 2.67328C1.47413 4.24562 0.5 6.73092 0.5 10.3862C0.5 12.0215 1.18647 13.7391 2.21527 15.4097C3.2483 17.0873 4.6552 18.7635 6.16146 20.3267C9.03887 23.313 12.3268 25.935 14.1822 27.4147C14.2692 27.4841 14.353 27.5509 14.4335 27.6152Z" stroke="#A70602" stroke-opacity="0.84" style="mix-blend-mode:plus-darker"/>
<path d="M31.0244 10.3862C31.0244 16.2673 20.8822 24.3477 17.2789 27.2244C16.5426 27.8135 15.5018 27.8135 14.7655 27.2244C13.116 25.9088 12.6938 25.4768 14.2451 26.7139C14.9815 27.303 16.0222 27.303 16.7586 26.7139C20.3619 23.8371 30.5041 15.7568 30.5041 9.87566C30.5041 8.20656 30.3862 6.67493 30.0721 5.53601C29.9837 5.1531 29.8168 4.84874 29.7579 4.51492C30.563 5.97783 31.0244 7.92184 31.0244 10.3862Z" fill="#A02B1C"/>
<path d="M29.6199 4.25964C28.3239 2.87527 26.537 2.23709 24.5341 2.23709C21.2646 2.23709 18.8297 4.08291 17.9363 5.16291C17.3177 5.9091 15.8646 5.41819 15.5308 5.11382C14.2643 3.94546 11.7901 2.23709 9.21772 2.23709C7.89227 2.23709 6.76318 2.53164 5.58499 3.25818C5.8599 3.93564 5.7519 4.8291 5.24136 5.59492C4.62281 6.51783 3.60172 6.97928 2.76717 6.75346C2.26644 8.03964 1.9719 9.64001 1.9719 11.6233C1.9719 13.4887 2.9439 15.5407 4.40681 17.5633C2.43335 15.1382 1.01953 12.6247 1.01953 10.3764C1.01953 3.23855 4.81917 1 8.48136 1C11.741 1 14.6275 2.81637 15.4817 3.916C15.7566 4.27928 16.2966 4.27928 16.5716 3.916C17.4356 2.81637 20.3123 1 23.5719 1C26.105 1 28.2945 2.02109 29.6199 4.25964Z" fill="white"/>
<defs>
<filter id="filter0_i_2002_18303" x="0" y="0.00982666" width="32.0244" height="28.6564" filterUnits="userSpaceOnUse" color-interpolation-filters="sRGB">
<feFlood flood-opacity="0" result="BackgroundImageFix"/>
<feBlend mode="normal" in="SourceGraphic" in2="BackgroundImageFix" result="shape"/>
<feColorMatrix in="SourceAlpha" type="matrix" values="0 0 0 0 0 0 0 0 0 0 0 0 0 0 0 0 0 0 127 0" result="hardAlpha"/>
<feOffset dx="-2" dy="-4"/>
<feComposite in2="hardAlpha" operator="arithmetic" k2="-1" k3="1"/>
<feColorMatrix type="matrix" values="0 0 0 0 0.523014 0 0 0 0 0.390127 0 0 0 0 0.143335 0 0 0 1 0"/>
<feBlend mode="hard-light" in2="shape" result="effect1_innerShadow_2002_18303"/>
</filter>
</defs>
</svg>
