<svg width="128" height="160" viewBox="0 0 128 160" fill="none" xmlns="http://www.w3.org/2000/svg">
<rect x="0.5" y="0.5" width="127" height="159" rx="9.5" fill="#C21700"/>
<rect x="0.5" y="0.5" width="127" height="159" rx="9.5" stroke="black"/>
<g style="mix-blend-mode:hard-light">
<rect x="86" y="1" width="10" height="158" fill="white" fill-opacity="0.2"/>
</g>
<g style="mix-blend-mode:hard-light">
<rect x="98" y="1" width="10" height="158" fill="white" fill-opacity="0.2"/>
</g>
<g clip-path="url(#clip0_2009_18461)">
<rect x="6.3999" y="6.66675" width="115.2" height="144.444" rx="6" fill="#7B91A7"/>
<path d="M10.3999 8.66675H117.4V143.667C117.4 146.428 115.161 148.667 112.4 148.667H15.3999C12.6385 148.667 10.3999 146.428 10.3999 143.667V8.66675Z" fill="url(#paint0_linear_2009_18461)"/>
<rect width="111" height="26" transform="translate(8.3999 127.667)" fill="url(#paint1_linear_2009_18461)" style="mix-blend-mode:multiply"/>
<g filter="url(#filter0_i_2009_18461)">
<g clip-path="url(#clip1_2009_18461)">
<rect x="24.3999" y="36.6667" width="80" height="80" rx="40" fill="url(#paint2_radial_2009_18461)"/>
<rect width="80" height="80" transform="translate(24.3999 36.6667)"/>
<g filter="url(#filter1_i_2009_18461)">
<circle cx="64.3999" cy="111.667" r="16" fill="#AA2E14"/>
</g>
<circle cx="64.3999" cy="111.667" r="16.75" stroke="black" stroke-width="1.5"/>
</g>
<rect x="24.1499" y="36.4167" width="80.5" height="80.5" rx="40.25" stroke="white" stroke-width="0.5" style="mix-blend-mode:soft-light"/>
</g>
<path d="M26.6665 8.66675H101.333V22.6667C101.333 24.8759 99.5423 26.6667 97.3332 26.6667H30.6665C28.4574 26.6667 26.6665 24.8759 26.6665 22.6667V8.66675Z" fill="url(#paint3_linear_2009_18461)" style="mix-blend-mode:multiply"/>
</g>
<rect x="7.3999" y="7.66675" width="113.2" height="144.667" rx="7" stroke="#0E0F11" stroke-width="2"/>
<defs>
<filter id="filter0_i_2009_18461" x="23.8999" y="36.1667" width="81" height="83" filterUnits="userSpaceOnUse" color-interpolation-filters="sRGB">
<feFlood flood-opacity="0" result="BackgroundImageFix"/>
<feBlend mode="normal" in="SourceGraphic" in2="BackgroundImageFix" result="shape"/>
<feColorMatrix in="SourceAlpha" type="matrix" values="0 0 0 0 0 0 0 0 0 0 0 0 0 0 0 0 0 0 127 0" result="hardAlpha"/>
<feMorphology radius="2" operator="erode" in="SourceAlpha" result="effect1_innerShadow_2009_18461"/>
<feOffset dy="2"/>
<feGaussianBlur stdDeviation="4"/>
<feComposite in2="hardAlpha" operator="arithmetic" k2="-1" k3="1"/>
<feColorMatrix type="matrix" values="0 0 0 0 0.18099 0 0 0 0 0.134413 0 0 0 0 0.0645482 0 0 0 0.2 0"/>
<feBlend mode="multiply" in2="shape" result="effect1_innerShadow_2009_18461"/>
</filter>
<filter id="filter1_i_2009_18461" x="46.8999" y="94.1667" width="35" height="35.5" filterUnits="userSpaceOnUse" color-interpolation-filters="sRGB">
<feFlood flood-opacity="0" result="BackgroundImageFix"/>
<feBlend mode="normal" in="SourceGraphic" in2="BackgroundImageFix" result="shape"/>
<feColorMatrix in="SourceAlpha" type="matrix" values="0 0 0 0 0 0 0 0 0 0 0 0 0 0 0 0 0 0 127 0" result="hardAlpha"/>
<feMorphology radius="2" operator="erode" in="SourceAlpha" result="effect1_innerShadow_2009_18461"/>
<feOffset dy="0.5"/>
<feGaussianBlur stdDeviation="0.5"/>
<feComposite in2="hardAlpha" operator="arithmetic" k2="-1" k3="1"/>
<feColorMatrix type="matrix" values="0 0 0 0 0 0 0 0 0 0 0 0 0 0 0 0 0 0 0.45 0"/>
<feBlend mode="normal" in2="shape" result="effect1_innerShadow_2009_18461"/>
</filter>
<linearGradient id="paint0_linear_2009_18461" x1="10.3999" y1="72.0556" x2="117.4" y2="72.0556" gradientUnits="userSpaceOnUse">
<stop offset="0.022678" stop-color="#BACBDC"/>
<stop offset="0.59" stop-color="#F5FAFF"/>
<stop offset="1" stop-color="#BBCBDC"/>
</linearGradient>
<linearGradient id="paint1_linear_2009_18461" x1="-5.41345e-07" y1="12.5517" x2="111" y2="12.5517" gradientUnits="userSpaceOnUse">
<stop stop-color="#BCCFDF"/>
<stop offset="0.255366" stop-color="#BCCFDF"/>
<stop offset="0.705248" stop-color="#D5EBFE"/>
<stop offset="1" stop-color="#BCCFDF"/>
</linearGradient>
<radialGradient id="paint2_radial_2009_18461" cx="0" cy="0" r="1" gradientUnits="userSpaceOnUse" gradientTransform="translate(64.3999 76.6667) rotate(90) scale(40)">
<stop stop-color="#B0B8C4"/>
<stop offset="0.782001" stop-color="#8D9399"/>
</radialGradient>
<linearGradient id="paint3_linear_2009_18461" x1="26.6665" y1="17.3564" x2="101.333" y2="17.3564" gradientUnits="userSpaceOnUse">
<stop stop-color="#93ABC9"/>
<stop offset="0.351781" stop-color="#ACC0D7"/>
<stop offset="0.692544" stop-color="#DCE7F2"/>
<stop offset="0.972849" stop-color="#94ACC9"/>
</linearGradient>
<clipPath id="clip0_2009_18461">
<rect x="6.3999" y="6.66675" width="115.2" height="146.667" rx="8" fill="white"/>
</clipPath>
<clipPath id="clip1_2009_18461">
<rect x="24.3999" y="36.6667" width="80" height="80" rx="40" fill="white"/>
</clipPath>
</defs>
</svg>
