<svg width="177" height="50" viewBox="0 0 177 50" fill="none" xmlns="http://www.w3.org/2000/svg">
<g clip-path="url(#clip0_2009_18524)">
<g filter="url(#filter0_iii_2009_18524)">
<rect width="177" height="50" rx="7" fill="#CDD0D3"/>
</g>
<path d="M0 8C0 4.13401 3.13401 1 7 1H46V48H7C3.13401 48 0 44.866 0 41V8Z" fill="black" fill-opacity="0.4"/>
<mask id="path-4-outside-1_2009_18524" maskUnits="userSpaceOnUse" x="7" y="8" width="32" height="32" fill="black">
<rect fill="white" x="7" y="8" width="32" height="32"/>
<path fill-rule="evenodd" clip-rule="evenodd" d="M21.1592 37.3673C21.1592 38.2696 21.8891 39 22.7907 39H22.8014C23.703 39 24.4329 38.2696 24.4329 37.3673V36.304C29.9499 35.6702 34.4365 31.3201 35.2415 25.8314H36.3685C37.2701 25.8314 38 25.1117 38 24.2095C38 23.3072 37.2701 22.5768 36.3685 22.5768H35.2952C34.6619 17.0666 30.3148 12.5661 24.8301 11.7497V10.6219C24.8301 9.7304 24.1002 9 23.1986 9C22.297 9 21.5671 9.7304 21.5671 10.6219V11.696C16.0501 12.3298 11.5528 16.6799 10.7478 22.1579H9.63148C8.72987 22.1579 8 22.8883 8 23.7905C8 24.6928 8.72987 25.4232 9.63148 25.4232H10.6941C11.3274 30.9334 15.6744 35.4339 21.1592 36.2503V37.3673ZM24.4222 32.4157C24.4222 31.5134 23.6923 30.783 22.7907 30.783L22.78 30.7723C21.8784 30.7723 21.1485 31.5027 21.1485 32.4049V33.4146C17.1771 32.652 14.0966 29.4189 13.5063 25.4125H14.5796C15.4812 25.4125 16.2111 24.6821 16.2111 23.7798C16.2111 22.8776 15.4812 22.1472 14.5796 22.1472H13.5814C14.3435 18.1622 17.5635 15.0795 21.5671 14.4887V15.5736C21.5671 16.4758 22.297 17.2062 23.1986 17.2062C24.1002 17.2062 24.8301 16.4758 24.8301 15.5736V14.5639C28.8014 15.3265 31.8819 18.5596 32.4723 22.5661H31.3989C30.5081 22.5661 29.7782 23.3072 29.7782 24.1987C29.7782 25.0902 30.5081 25.8206 31.3989 25.8206H32.4079C31.6458 29.8056 28.4258 32.899 24.4222 33.4898V32.4157ZM17.7137 23.9946C17.7137 26.9054 20.0858 29.2792 22.9946 29.2792C25.9034 29.2792 28.2755 26.9054 28.2755 23.9946C28.2755 21.0838 25.9034 18.71 22.9946 18.71C20.0858 18.71 17.7137 21.0838 17.7137 23.9946ZM20.4937 23.9946C20.4937 22.6197 21.61 21.5027 22.9946 21.5027C24.3792 21.5027 25.4955 22.609 25.4955 23.9946C25.4955 25.3802 24.3792 26.4973 22.9946 26.4973C21.61 26.4973 20.4937 25.3695 20.4937 23.9946Z"/>
</mask>
<path fill-rule="evenodd" clip-rule="evenodd" d="M21.1592 37.3673C21.1592 38.2696 21.8891 39 22.7907 39H22.8014C23.703 39 24.4329 38.2696 24.4329 37.3673V36.304C29.9499 35.6702 34.4365 31.3201 35.2415 25.8314H36.3685C37.2701 25.8314 38 25.1117 38 24.2095C38 23.3072 37.2701 22.5768 36.3685 22.5768H35.2952C34.6619 17.0666 30.3148 12.5661 24.8301 11.7497V10.6219C24.8301 9.7304 24.1002 9 23.1986 9C22.297 9 21.5671 9.7304 21.5671 10.6219V11.696C16.0501 12.3298 11.5528 16.6799 10.7478 22.1579H9.63148C8.72987 22.1579 8 22.8883 8 23.7905C8 24.6928 8.72987 25.4232 9.63148 25.4232H10.6941C11.3274 30.9334 15.6744 35.4339 21.1592 36.2503V37.3673ZM24.4222 32.4157C24.4222 31.5134 23.6923 30.783 22.7907 30.783L22.78 30.7723C21.8784 30.7723 21.1485 31.5027 21.1485 32.4049V33.4146C17.1771 32.652 14.0966 29.4189 13.5063 25.4125H14.5796C15.4812 25.4125 16.2111 24.6821 16.2111 23.7798C16.2111 22.8776 15.4812 22.1472 14.5796 22.1472H13.5814C14.3435 18.1622 17.5635 15.0795 21.5671 14.4887V15.5736C21.5671 16.4758 22.297 17.2062 23.1986 17.2062C24.1002 17.2062 24.8301 16.4758 24.8301 15.5736V14.5639C28.8014 15.3265 31.8819 18.5596 32.4723 22.5661H31.3989C30.5081 22.5661 29.7782 23.3072 29.7782 24.1987C29.7782 25.0902 30.5081 25.8206 31.3989 25.8206H32.4079C31.6458 29.8056 28.4258 32.899 24.4222 33.4898V32.4157ZM17.7137 23.9946C17.7137 26.9054 20.0858 29.2792 22.9946 29.2792C25.9034 29.2792 28.2755 26.9054 28.2755 23.9946C28.2755 21.0838 25.9034 18.71 22.9946 18.71C20.0858 18.71 17.7137 21.0838 17.7137 23.9946ZM20.4937 23.9946C20.4937 22.6197 21.61 21.5027 22.9946 21.5027C24.3792 21.5027 25.4955 22.609 25.4955 23.9946C25.4955 25.3802 24.3792 26.4973 22.9946 26.4973C21.61 26.4973 20.4937 25.3695 20.4937 23.9946Z" fill="white"/>
<path d="M24.4329 36.304L24.3188 35.3105L23.4329 35.4123V36.304H24.4329ZM35.2415 25.8314V24.8314H34.3775L34.2521 25.6863L35.2415 25.8314ZM35.2952 22.5768L34.3017 22.691L34.4035 23.5768H35.2952V22.5768ZM24.8301 11.7497H23.8301V12.6119L24.6828 12.7388L24.8301 11.7497ZM21.5671 11.696L21.6812 12.6895L22.5671 12.5877V11.696H21.5671ZM10.7478 22.1579V23.1579H11.6116L11.7371 22.3033L10.7478 22.1579ZM10.6941 25.4232L11.6876 25.309L11.5858 24.4232H10.6941V25.4232ZM21.1592 36.2503H22.1592V35.3881L21.3064 35.2612L21.1592 36.2503ZM22.7907 30.783L22.0833 31.4898L22.3762 31.783H22.7907V30.783ZM22.78 30.7723L23.4874 30.0655L23.1944 29.7723H22.78V30.7723ZM21.1485 33.4146L20.9599 34.3967L22.1485 34.6249V33.4146H21.1485ZM13.5063 25.4125V24.4125H12.3481L12.5169 25.5582L13.5063 25.4125ZM13.5814 22.1472L12.5992 21.9593L12.372 23.1472H13.5814V22.1472ZM21.5671 14.4887H22.5671V13.3303L21.4211 13.4994L21.5671 14.4887ZM24.8301 14.5639L25.0186 13.5819L23.8301 13.3536V14.5639H24.8301ZM32.4723 22.5661V23.5661H33.6304L33.4616 22.4203L32.4723 22.5661ZM32.4079 25.8206L33.3901 26.0085L33.6172 24.8206H32.4079V25.8206ZM24.4222 33.4898H23.4222V34.6482L24.5682 34.4791L24.4222 33.4898ZM22.7907 38C22.442 38 22.1592 37.718 22.1592 37.3673H20.1592C20.1592 38.8212 21.3361 40 22.7907 40V38ZM22.8014 38H22.7907V40H22.8014V38ZM23.4329 37.3673C23.4329 37.718 23.1501 38 22.8014 38V40C24.256 40 25.4329 38.8212 25.4329 37.3673H23.4329ZM23.4329 36.304V37.3673H25.4329V36.304H23.4329ZM34.2521 25.6863C33.5129 30.7264 29.3856 34.7285 24.3188 35.3105L24.547 37.2974C30.5143 36.612 35.3601 31.9138 36.2309 25.9765L34.2521 25.6863ZM36.3685 24.8314H35.2415V26.8314H36.3685V24.8314ZM37 24.2095C37 24.5515 36.7258 24.8314 36.3685 24.8314V26.8314C37.8145 26.8314 39 25.6719 39 24.2095H37ZM36.3685 23.5768C36.7172 23.5768 37 23.8588 37 24.2095H39C39 22.7556 37.8231 21.5768 36.3685 21.5768V23.5768ZM35.2952 23.5768H36.3685V21.5768H35.2952V23.5768ZM24.6828 12.7388C29.7194 13.4884 33.72 17.6295 34.3017 22.691L36.2886 22.4626C35.6038 16.5036 30.9103 11.6437 24.9773 10.7606L24.6828 12.7388ZM23.8301 10.6219V11.7497H25.8301V10.6219H23.8301ZM23.1986 10C23.5515 10 23.8301 10.2863 23.8301 10.6219H25.8301C25.8301 9.17449 24.6488 8 23.1986 8V10ZM22.5671 10.6219C22.5671 10.2863 22.8456 10 23.1986 10V8C21.7483 8 20.5671 9.1745 20.5671 10.6219H22.5671ZM22.5671 11.696V10.6219H20.5671V11.696H22.5671ZM11.7371 22.3033C12.476 17.2753 16.6128 13.2717 21.6812 12.6895L21.453 10.7026C15.4874 11.3878 10.6295 16.0845 9.75839 22.0125L11.7371 22.3033ZM9.63148 23.1579H10.7478V21.1579H9.63148V23.1579ZM9 23.7905C9 23.4399 9.28284 23.1579 9.63148 23.1579V21.1579C8.17691 21.1579 7 22.3367 7 23.7905H9ZM9.63148 24.4232C9.28283 24.4232 9 24.1412 9 23.7905H7C7 25.2444 8.17692 26.4232 9.63148 26.4232V24.4232ZM10.6941 24.4232H9.63148V26.4232H10.6941V24.4232ZM21.3064 35.2612C16.2699 34.5116 12.2693 30.3705 11.6876 25.309L9.70064 25.5374C10.3855 31.4964 15.0789 36.3563 21.012 37.2394L21.3064 35.2612ZM22.1592 37.3673V36.2503H20.1592V37.3673H22.1592ZM22.7907 31.783C23.1394 31.783 23.4222 32.065 23.4222 32.4157H25.4222C25.4222 30.9618 24.2453 29.783 22.7907 29.783V31.783ZM22.0725 31.4791L22.0833 31.4898L23.4981 30.0762L23.4874 30.0655L22.0725 31.4791ZM22.1485 32.4049C22.1485 32.0543 22.4313 31.7723 22.78 31.7723V29.7723C21.3254 29.7723 20.1485 30.9511 20.1485 32.4049H22.1485ZM22.1485 33.4146V32.4049H20.1485V33.4146H22.1485ZM12.5169 25.5582C13.1689 29.9827 16.5684 33.5534 20.9599 34.3967L21.3371 32.4326C17.7858 31.7506 15.0243 28.8551 14.4956 25.2667L12.5169 25.5582ZM14.5796 24.4125H13.5063V26.4125H14.5796V24.4125ZM15.2111 23.7798C15.2111 24.1305 14.9283 24.4125 14.5796 24.4125V26.4125C16.0342 26.4125 17.2111 25.2337 17.2111 23.7798H15.2111ZM14.5796 23.1472C14.9283 23.1472 15.2111 23.4292 15.2111 23.7798H17.2111C17.2111 22.3259 16.0342 21.1472 14.5796 21.1472V23.1472ZM13.5814 23.1472H14.5796V21.1472H13.5814V23.1472ZM21.4211 13.4994C16.9966 14.1523 13.4412 17.5566 12.5992 21.9593L14.5636 22.335C15.2458 18.7677 18.1304 16.0067 21.7131 15.478L21.4211 13.4994ZM22.5671 15.5736V14.4887H20.5671V15.5736H22.5671ZM23.1986 16.2062C22.8499 16.2062 22.5671 15.9242 22.5671 15.5736H20.5671C20.5671 17.0274 21.744 18.2062 23.1986 18.2062V16.2062ZM23.8301 15.5736C23.8301 15.9242 23.5472 16.2062 23.1986 16.2062V18.2062C24.6531 18.2062 25.8301 17.0274 25.8301 15.5736H23.8301ZM23.8301 14.5639V15.5736H25.8301V14.5639H23.8301ZM33.4616 22.4203C32.8097 17.9958 29.4102 14.4252 25.0186 13.5819L24.6415 15.546C28.1927 16.2279 30.9542 19.1234 31.483 22.7118L33.4616 22.4203ZM31.3989 23.5661H32.4723V21.5661H31.3989V23.5661ZM30.7782 24.1987C30.7782 23.8502 31.0696 23.5661 31.3989 23.5661V21.5661C29.9465 21.5661 28.7782 22.7642 28.7782 24.1987H30.7782ZM31.3989 24.8206C31.061 24.8206 30.7782 24.5386 30.7782 24.1987H28.7782C28.7782 25.6418 29.9551 26.8206 31.3989 26.8206V24.8206ZM32.4079 24.8206H31.3989V26.8206H32.4079V24.8206ZM24.5682 34.4791C28.9943 33.826 32.5484 30.4095 33.3901 26.0085L31.4257 25.6328C30.7432 29.2016 27.8572 31.9721 24.2762 32.5005L24.5682 34.4791ZM23.4222 32.4157V33.4898H25.4222V32.4157H23.4222ZM22.9946 28.2792C20.6388 28.2792 18.7137 26.3538 18.7137 23.9946H16.7137C16.7137 27.4571 19.5329 30.2792 22.9946 30.2792V28.2792ZM27.2755 23.9946C27.2755 26.3538 25.3504 28.2792 22.9946 28.2792V30.2792C26.4563 30.2792 29.2755 27.4571 29.2755 23.9946H27.2755ZM22.9946 19.71C25.3504 19.71 27.2755 21.6354 27.2755 23.9946H29.2755C29.2755 20.5321 26.4563 17.71 22.9946 17.71V19.71ZM18.7137 23.9946C18.7137 21.6354 20.6388 19.71 22.9946 19.71V17.71C19.5329 17.71 16.7137 20.5321 16.7137 23.9946H18.7137ZM22.9946 20.5027C21.0598 20.5027 19.4937 22.0653 19.4937 23.9946H21.4937C21.4937 23.1741 22.1601 22.5027 22.9946 22.5027V20.5027ZM26.4955 23.9946C26.4955 22.0518 24.9266 20.5027 22.9946 20.5027V22.5027C23.8319 22.5027 24.4955 23.1662 24.4955 23.9946H26.4955ZM22.9946 27.4973C24.9322 27.4973 26.4955 25.9318 26.4955 23.9946H24.4955C24.4955 24.8286 23.8263 25.4973 22.9946 25.4973V27.4973ZM19.4937 23.9946C19.4937 25.9183 21.0542 27.4973 22.9946 27.4973V25.4973C22.1657 25.4973 21.4937 24.8207 21.4937 23.9946H19.4937Z" fill="black" mask="url(#path-4-outside-1_2009_18524)"/>
</g>
<defs>
<filter id="filter0_iii_2009_18524" x="0" y="0" width="177" height="50" filterUnits="userSpaceOnUse" color-interpolation-filters="sRGB">
<feFlood flood-opacity="0" result="BackgroundImageFix"/>
<feBlend mode="normal" in="SourceGraphic" in2="BackgroundImageFix" result="shape"/>
<feColorMatrix in="SourceAlpha" type="matrix" values="0 0 0 0 0 0 0 0 0 0 0 0 0 0 0 0 0 0 127 0" result="hardAlpha"/>
<feMorphology radius="8" operator="erode" in="SourceAlpha" result="effect1_innerShadow_2009_18524"/>
<feOffset/>
<feGaussianBlur stdDeviation="15"/>
<feComposite in2="hardAlpha" operator="arithmetic" k2="-1" k3="1"/>
<feColorMatrix type="matrix" values="0 0 0 0 0 0 0 0 0 0 0 0 0 0 0 0 0 0 0.05 0"/>
<feBlend mode="normal" in2="shape" result="effect1_innerShadow_2009_18524"/>
<feColorMatrix in="SourceAlpha" type="matrix" values="0 0 0 0 0 0 0 0 0 0 0 0 0 0 0 0 0 0 127 0" result="hardAlpha"/>
<feOffset dy="1"/>
<feComposite in2="hardAlpha" operator="arithmetic" k2="-1" k3="1"/>
<feColorMatrix type="matrix" values="0 0 0 0 0 0 0 0 0 0 0 0 0 0 0 0 0 0 0.2 0"/>
<feBlend mode="multiply" in2="effect1_innerShadow_2009_18524" result="effect2_innerShadow_2009_18524"/>
<feColorMatrix in="SourceAlpha" type="matrix" values="0 0 0 0 0 0 0 0 0 0 0 0 0 0 0 0 0 0 127 0" result="hardAlpha"/>
<feOffset dy="-2"/>
<feComposite in2="hardAlpha" operator="arithmetic" k2="-1" k3="1"/>
<feColorMatrix type="matrix" values="0 0 0 0 1 0 0 0 0 1 0 0 0 0 1 0 0 0 0.3 0"/>
<feBlend mode="hard-light" in2="effect2_innerShadow_2009_18524" result="effect3_innerShadow_2009_18524"/>
</filter>
<clipPath id="clip0_2009_18524">
<rect width="177" height="50" rx="7" fill="white"/>
</clipPath>
</defs>
</svg>
